<svg xmlns="http://www.w3.org/2000/svg" width="106" height="31" viewBox="0 0 106 31">
    <g fill="none" fill-rule="evenodd">
        <g fill="#434343" fill-rule="nonzero">
            <g>
                <g>
                    <path d="M0 30.649V0h21.387v30.649H0zm18.292-3.088V3.087H3.08v24.474h15.212zM35.597 13.747h-1.323c-1.734-2.452-3.46-4.889-5.18-7.647v7.647h-1.495V3.08h1.323c1.734 2.437 3.46 4.859 5.165 7.602V3.08h1.495v10.667h.015zM39.066 9.531c.426-1.398.852-2.699 1.233-4.343.426 1.644.808 2.945 1.204 4.343h-2.437zm.703-6.444l-3.693 10.66h1.584l.927-2.908h3.215l.837 2.908h2.04L41.31 3.08h-1.496l-.044.007zM46.414 13.747L46.414 4.515 43.611 4.515 43.611 3.087 51.026 3.087 51.026 4.515 48.223 4.515 48.223 13.747 46.392 13.747zM51.647 13.747L51.647 3.08 53.463 3.08 53.463 13.747zM59.092 12.387c-1.906 0-2.579-2.101-2.579-4.142 0-2.04.748-3.842 2.58-3.842 1.83 0 2.578 1.876 2.578 3.842 0 1.966-.673 4.142-2.579 4.142zm0 1.495c2.788 0 4.523-2.482 4.523-5.667 0-2.99-1.921-5.367-4.523-5.367-2.601 0-4.522 2.377-4.522 5.367 0 3.23 1.734 5.719 4.522 5.719v-.052zM72.705 13.747H71.38c-1.734-2.452-3.46-4.889-5.18-7.647v7.647h-1.495V3.08h1.323c1.734 2.437 3.461 4.859 5.166 7.602V3.08h1.495v10.667h.015zM76.196 9.531c.426-1.398.852-2.699 1.233-4.343.426 1.644.807 2.945 1.204 4.343h-2.467.03zm.702-6.444l-3.685 10.668h1.585l.927-2.908h3.214l.837 2.908h2.041L78.423 3.087H76.898zM82.348 3.08L84.164 3.08 84.164 12.312 87.775 12.312 87.775 13.747 82.348 13.747z" transform="translate(-888 -1212) translate(82 1104) translate(806 108)"/>
                    <g>
                        <path d="M8.305 6.227v4.403c-.962.406-1.991.63-3.035.658C2.13 11.288.15 8.85.15 5.71.15 2.803 2.13.254 5.33.254c.928.004 1.833.29 2.594.822l-.59 1.264c-.591-.353-1.264-.547-1.952-.56-1.95 0-3.274 1.539-3.274 3.961 0 2.422 1.495 4.022 3.095 4.022.44.019.88-.071 1.278-.262V6.227h1.832-.008zM14.846 1.869L11.796 1.869 11.796 4.792 14.786 4.792 14.786 6.227 11.796 6.227 11.796 9.673 15.392 9.673 15.392 11.108 9.965 11.108 9.965.426 14.838.426 14.838 1.861zM20.482 9.763c-1.906 0-2.571-2.1-2.571-4.142 0-2.04.747-3.842 2.571-3.842 1.824 0 2.58 1.876 2.58 3.842 0 1.966-.674 4.142-2.58 4.142zm0 1.495c2.789 0 4.523-2.482 4.523-5.666 0-2.99-1.921-5.368-4.523-5.368-2.601 0-4.522 2.377-4.522 5.368 0 3.214 1.734 5.696 4.522 5.696v-.03zM33.788 6.227v4.403c-.962.406-1.99.629-3.035.658-3.14 0-5.12-2.437-5.12-5.577 0-2.908 1.98-5.457 5.18-5.457.928.003 1.833.29 2.594.822l-.59 1.264c-.591-.353-1.264-.547-1.952-.56-1.95 0-3.274 1.539-3.274 3.961 0 2.422 1.495 4.022 3.095 4.022.441.019.88-.071 1.278-.262V6.227h1.832-.008zM37.294 1.869h.808c.466-.046.927.121 1.256.455.328.334.487.799.433 1.264.065.513-.084 1.03-.412 1.431-.328.4-.806.648-1.322.685l-.748.044V1.861l-.015.008zM41.93 11.1l-2.116-4.418c1.15-.638 1.859-1.855 1.847-3.17 0-2.07-1.264-3.08-3.304-3.08h-2.848v10.668h1.831V7.079h.822l1.72 4.022h2.085-.037z" transform="translate(-888 -1212) translate(82 1104) translate(806 108) translate(26.163 16.446)"/>
                        <path d="M44.941 6.885c.427-1.398.853-2.699 1.234-4.343.426 1.644.807 2.937 1.203 4.343h-2.466.03zm.703-6.459L41.96 11.093h1.592l.927-2.908h3.214l.838 2.908h2.04L47.17.426H45.644zM54.016.426h-2.848v10.667H53V7.08h.822c.942.006 1.847-.37 2.507-1.041.661-.672 1.021-1.583.999-2.525-.03-2.07-1.293-3.087-3.312-3.087zm-.261 5.27l-.748.045v-3.88h.823c.463-.041.92.129 1.245.462.325.333.483.795.429 1.258.07.521-.082 1.049-.419 1.453-.336.405-.827.65-1.353.677l.023-.015zM65.775 11.101L63.944 11.101 63.944 5.965 60.146 5.965 60.146 11.101 58.33 11.101 58.33.426 60.146.426 60.146 4.523 63.944 4.523 63.944.456 65.775.456 65.775 11.093zM67.524 11.101L67.524.426 69.341.426 69.341 11.093 67.524 11.093zM77.571 2.37c-.564-.356-1.21-.56-1.876-.59-1.862 0-3.215 1.539-3.215 3.961 0 2.422 1.495 4.022 3.26 4.022.648-.002 1.282-.186 1.831-.531l.5 1.323c-.717.466-1.55.725-2.406.748-3.14 0-5.12-2.437-5.12-5.577 0-2.908 1.965-5.457 5.15-5.457.88.028 1.733.314 2.452.822L77.57 2.37z" transform="translate(-888 -1212) translate(82 1104) translate(806 108) translate(26.163 16.446)"/>
                    </g>
                </g>
            </g>
        </g>
    </g>
</svg>
