<svg xmlns="http://www.w3.org/2000/svg" width="49.915" height="49.917" viewBox="0 0 49.915 49.917"><g><g data-name="Group 626"><path data-name="Path 958" d="M29.252 272.938a.832.832 0 1 0 0 1.664h23.294a.832.832 0 0 0 0-1.664zM24.26 261.29a.832.832 0 0 0-.832.832v28.286a.832.832 0 0 0 .832.831h24.958a.832.832 0 1 0 0-1.664H25.092v-26.62h3.328a.832.832 0 0 0 0-1.664zm28.285-3.327a.832.832 0 1 0 0 1.664h14.143v22.462a.832.832 0 1 0 1.664 0v-23.294a.832.832 0 0 0-.832-.831zm8.319 38.268a.832.832 0 0 0-.832.832v4.337a.832.832 0 1 0 1.664 0v-4.341a.832.832 0 0 0-.832-.832zm-11.647 4.992a.832.832 0 0 0 0 1.664h23.295a.832.832 0 0 0 0-1.664zm0-19.966a.854.854 0 0 0-.832.828v14.974a.832.832 0 0 0 .832.832h23.295a.832.832 0 0 0 .832-.832v-14.974a.832.832 0 0 0-.832-.832zm.832 1.664h21.63v13.31H50.05zM40.9 268.778a.832.832 0 0 0-.832.832v3.744a.832.832 0 1 0 1.664 0v-3.744a.832.832 0 0 0-.832-.832zM28.421 253.8v14.974a.832.832 0 0 0 .832.832h23.294a.832.832 0 0 0 .832-.832V253.8a.832.832 0 0 0-.832-.832H29.269a.786.786 0 0 0-.849.832zm1.663.832h21.63v13.311h-21.63z" transform="translate(-23.428 -252.97)" style="fill:#0853bd"></path></g></g></svg>