<svg xmlns="http://www.w3.org/2000/svg" width="48.761" height="40.896" viewBox="0 0 48.761 40.896"><defs><style>
      .cls-1 {
        fill: #0853bd;
      }
    </style></defs><g id="noun_maintenance_3967185" transform="translate(-1 -6)"><path id="Path_961" data-name="Path 961" class="cls-1" d="M45.828,6H4.932A3.932,3.932,0,0,0,1,9.932V42.964A3.932,3.932,0,0,0,4.932,46.9h40.9a3.932,3.932,0,0,0,3.932-3.932V9.932A3.932,3.932,0,0,0,45.828,6ZM4.932,7.573h40.9a2.359,2.359,0,0,1,2.359,2.359v5.505H2.573V9.932A2.359,2.359,0,0,1,4.932,7.573ZM21.023,38.379a9.438,9.438,0,0,1-1.148-16.036v7.668a.786.786,0,0,0,.786.786H30.1a.786.786,0,0,0,.786-.786V22.343a9.438,9.438,0,0,1-1.148,16.036.786.786,0,0,0-.425.7v6.245H21.448V39.079A.786.786,0,0,0,21.023,38.379Zm24.805,6.944H30.886V39.543a11.01,11.01,0,0,0-.425-19.3.786.786,0,0,0-1.148.7v8.281H21.448V20.943a.786.786,0,0,0-1.148-.7,11.01,11.01,0,0,0-.425,19.3v5.78H4.932a2.359,2.359,0,0,1-2.359-2.359V17.01H48.188V42.964a2.359,2.359,0,0,1-2.359,2.359Z"></path><rect id="Rectangle_593" data-name="Rectangle 593" class="cls-1" width="3" height="1" transform="translate(43 10.896)"></rect><rect id="Rectangle_594" data-name="Rectangle 594" class="cls-1" width="3" height="1" transform="translate(38 10.896)"></rect><rect id="Rectangle_595" data-name="Rectangle 595" class="cls-1" width="3" height="1" transform="translate(33 10.896)"></rect></g></svg>