<svg xmlns="http://www.w3.org/2000/svg" width="49.363" height="37.001" viewBox="0 0 49.363 37.001"><defs><style>
            .cls-1{fill:#0853bd}
        </style></defs><g id="noun_customization_4388449" transform="translate(-3.5 -15.13)"><g id="Layer_2" data-name="Layer 2" transform="translate(3.5 15.13)"><path id="Path_954" data-name="Path 954" class="cls-1" d="M50.454 15.13H5.914A2.414 2.414 0 0 0 3.5 17.544v32.173a2.414 2.414 0 0 0 2.414 2.414h44.54a2.414 2.414 0 0 0 2.409-2.414V17.544a2.414 2.414 0 0 0-2.409-2.414zm.8 34.587a.822.822 0 0 1-.8.822h-.881v-6.9a.8.8 0 0 0-.8-.8H44a16.665 16.665 0 0 0-1.289-3.1l3.369-3.374a.791.791 0 0 0 0-1.125l-5.571-5.587a.8.8 0 0 0-1.125 0l-3.369 3.374a16.315 16.315 0 0 0-3.1-1.289v-4.771a.8.8 0 0 0-.8-.8h-7.892a.8.8 0 0 0-.8.8v4.775a16.315 16.315 0 0 0-3.1 1.289l-3.369-3.374a.8.8 0 0 0-1.125 0l-5.581 5.566a.8.8 0 0 0 0 1.125l3.369 3.374a16.665 16.665 0 0 0-1.289 3.1H7.553a.8.8 0 0 0-.8.8v6.9h-.839a.822.822 0 0 1-.822-.8V21.369H51.25zM35.429 43.1a.923.923 0 0 1 .106.419.944.944 0 0 1-.106.419.9.9 0 0 1-.8.483.923.923 0 0 1-.907-.9.865.865 0 0 1 .111-.419.891.891 0 0 1 .8-.483.9.9 0 0 1 .796.481zm0 2.769a2.478 2.478 0 0 0 0-4.706v-4.349a.8.8 0 1 0-1.592 0v4.351a2.478 2.478 0 0 0 0 4.706v4.669h-4.87v-.85a2.478 2.478 0 0 0 0-4.706v-8.17a.8.8 0 1 0-1.592 0v8.171a2.478 2.478 0 0 0 0 4.706v.849H22.5v-6.829a2.478 2.478 0 0 0 0-4.711v-2.186a.8.8 0 0 0-1.592 0v2.175a2.478 2.478 0 0 0 0 4.706v6.844H8.36v-6.106h4.573a.8.8 0 0 0 .769-.6A14.972 14.972 0 0 1 15.294 40a.8.8 0 0 0-.122-.966L11.936 35.8l4.457-4.457 3.236 3.242a.8.8 0 0 0 .966.122 14.818 14.818 0 0 1 3.831-1.592.8.8 0 0 0 .594-.769v-4.552h6.3v4.573a.8.8 0 0 0 .594.732 14.818 14.818 0 0 1 3.831 1.592.8.8 0 0 0 .966-.122l3.236-3.242 4.457 4.457-3.236 3.236a.8.8 0 0 0-.122.976 14.9 14.9 0 0 1 1.592 3.831.8.8 0 0 0 .769.6h4.573v6.112H35.429zm-6.462 1.061a.865.865 0 0 1 .106.419.844.844 0 0 1-.106.414.9.9 0 0 1-1.592 0 .881.881 0 0 1-.106-.419.849.849 0 0 1 .106-.419.891.891 0 0 1 1.592 0zM22.5 40.915a.881.881 0 0 1 .111.419.849.849 0 0 1-.111.419.9.9 0 0 1-.8.488.907.907 0 0 1-.8-.488.9.9 0 0 1 .8-1.321.891.891 0 0 1 .8.483zM5.092 19.778v-2.234a.822.822 0 0 1 .822-.822h44.54a.822.822 0 0 1 .817.822v2.234z" transform="translate(-3.5 -15.13)"></path><path id="Path_955" data-name="Path 955" class="cls-1" d="M20.966 19.468a.854.854 0 0 0-.286-.122.753.753 0 0 0-.308 0 .854.854 0 0 0-.154.048.653.653 0 0 0-.133.074.531.531 0 0 0-.122.1.8.8 0 0 0-.218.722.2.2 0 0 0 .042.149.586.586 0 0 1 .074.138 1.061 1.061 0 0 0 .1.117.562.562 0 0 0 .122.1 1.061 1.061 0 0 0 .133.074.833.833 0 0 0 .154.042.753.753 0 0 0 .308 0 .684.684 0 0 0 .149-.042l.138-.074a.727.727 0 0 0 .122-.1 1.061 1.061 0 0 0 .1-.117.838.838 0 0 0 .069-.138.791.791 0 0 0-.17-.87.69.69 0 0 0-.122-.1z" transform="translate(-11.119 -17.102)"></path><path id="Path_956" data-name="Path 956" class="cls-1" d="M15.8 19.823a1.141 1.141 0 0 0-.1-.138 1.119 1.119 0 0 0-.1-.122.531.531 0 0 0-.122-.1.653.653 0 0 0-.133-.074.806.806 0 0 0-.149-.048.78.78 0 0 0-.313 0 .9.9 0 0 0-.409.218.78.78 0 0 0-.17.87.584.584 0 0 0 .074.138.658.658 0 0 0 .1.117.727.727 0 0 0 .122.1l.138.074a.684.684 0 0 0 .149.042.759.759 0 0 0 .154 0 .8.8 0 0 0 .562-.233 1.061 1.061 0 0 0 .1-.117c.027-.048.053-.09.074-.138a.782.782 0 0 0 .042-.149.812.812 0 0 0 0-.159.8.8 0 0 0 0-.154 1.215 1.215 0 0 0-.021-.133z" transform="translate(-8.545 -17.102)"></path><path id="Path_957" data-name="Path 957" class="cls-1" d="M10.4 19.822a.69.69 0 0 0-.074-.138 1.061 1.061 0 0 0-.1-.122.78.78 0 0 0-.87-.17.69.69 0 0 0-.138.074.53.53 0 0 0-.117.1.727.727 0 0 0-.1.122.69.69 0 0 0-.074.138.53.53 0 0 0-.042.149.8.8 0 0 0 0 .154.812.812 0 0 0 0 .159.531.531 0 0 0 .042.149.875.875 0 0 0 .073.133.69.69 0 0 0 .1.117.8.8 0 0 0 .562.233.806.806 0 0 0 .562-.233 1.019 1.019 0 0 0 .1-.117.875.875 0 0 0 .074-.138.647.647 0 0 0 .058-.308.774.774 0 0 0 0-.154.806.806 0 0 0-.056-.148z" transform="translate(-6.027 -17.1)"></path></g></g></svg>