<svg xmlns="http://www.w3.org/2000/svg" width="32.673" height="45.709" viewBox="0 0 32.673 45.709"><defs><style>
      .cls-1 {
        fill: #0045a6;
      }
    </style></defs><g id="noun_developer_options_3330514" data-name="noun_developer options_3330514" transform="translate(-13.067 -10)"><g id="Group_552" data-name="Group 552" transform="translate(13.067 10)"><path id="Path_806" data-name="Path 806" class="cls-1" d="M62.49,51.84l-2.436,2.436-1.294,1.3,1.294,1.289L62.49,59.3l1.294-1.294-2.436-2.432,2.436-2.441Z" transform="translate(-42.995 -32.716)"></path><path id="Path_807" data-name="Path 807" class="cls-1" d="M88.49,54.276,86.054,51.84,84.76,53.134,87.2,55.574,84.76,58.006,86.054,59.3l2.436-2.436,1.294-1.289Z" transform="translate(-57.111 -32.716)"></path><path id="Path_808" data-name="Path 808" class="cls-1" d="M48.029,39.295V52.052a.914.914,0,0,1-.914.914H26.089a.914.914,0,0,1-.914-.914v-38.4a.914.914,0,0,1,.914-.914H47.115a.914.914,0,0,1,.914.914V27.5l.343-1.239.58.155V11.828A1.828,1.828,0,0,0,47.124,10H26.1a1.828,1.828,0,0,0-1.828,1.828V53.88A1.828,1.828,0,0,0,26.1,55.709H47.124a1.828,1.828,0,0,0,1.828-1.828V38.211l-.334,1.239Z" transform="translate(-24.27 -10)"></path><rect id="Rectangle_506" data-name="Rectangle 506" class="cls-1" width="10.851" height="1.828" transform="matrix(0.259, -0.966, 0.966, 0.259, 21.929, 27.859)"></rect></g></g></svg>