<svg xmlns="http://www.w3.org/2000/svg" width="52.919" height="28.229" viewBox="0 0 52.919 28.229"><defs><style>
      .cls-1 {
        fill: #0853bd;
      }
    </style></defs><g id="noun_integration_3377948" transform="translate(-0.195 -29.979)"><path id="Path_959" data-name="Path 959" class="cls-1" d="M21.635,41.47h-1.44V30.818a.83.83,0,0,0-.768-.83,2.49,2.49,0,0,0-.415,0h-.2C14.41,29.988,7.7,35.532,7.5,42.437a7.91,7.91,0,0,0,.83,15.769H19.365a.83.83,0,0,0,.83-.83v-8.8h1.44a3.556,3.556,0,1,0,0-7.109Zm0,5.449h-2.27a.83.83,0,0,0-.83.83v8.8H8.322a6.254,6.254,0,1,1-.037-12.508.826.826,0,0,0,.876-.863v-.415c-.008-5.88,5.64-10.86,9.375-11.113V42.3a.83.83,0,0,0,.83.83h2.27a1.9,1.9,0,1,1,0,3.789Z" transform="translate(-0.276)"></path><path id="Path_960" data-name="Path 960" class="cls-1" d="M84.859,44.174a7.337,7.337,0,0,0,.1-1.2,7.955,7.955,0,0,0-8.013-7.885A8.088,8.088,0,0,0,74.1,35.6a12.711,12.711,0,0,0-9.188-5.611.834.834,0,0,0-.917.83v4.453a.75.75,0,0,0,0,.166v6.864a.83.83,0,0,0,.83.83h2.27a1.9,1.9,0,1,1,0,3.789h-2.27a.83.83,0,0,0-.83.83v6.308a.763.763,0,0,0,0,.17v3.15a.83.83,0,0,0,.83.83H83.332A7.092,7.092,0,0,0,84.859,44.17ZM83.332,56.553H65.653V50.042a.764.764,0,0,0,0-.17V48.585h1.44a3.556,3.556,0,1,0,0-7.109h-1.44v-.83a.727.727,0,0,0,0-.166v-8.69a11.2,11.2,0,0,1,7.42,5.287.83.83,0,0,0,1.067.315,6.407,6.407,0,0,1,2.8-.643,6.3,6.3,0,0,1,6.353,6.225,6.1,6.1,0,0,1-.237,1.66.83.83,0,0,0,.735,1.054,5.437,5.437,0,0,1-.461,10.864Z" transform="translate(-37.434 -0.006)"></path></g></svg>