<svg xmlns="http://www.w3.org/2000/svg" width="60.261" height="44.803" viewBox="0 0 60.261 44.803"><defs><style>
            .cls-1{fill:#0853bd;stroke:#fff;stroke-width:.5px}
        </style></defs><g id="website-svgrepo-com" transform="translate(.25 -55.748)"><path id="Path_927" data-name="Path 927" class="cls-1" d="M58.726 67.039H45.407V57.033A1.035 1.035 0 0 0 44.372 56H1.035A1.035 1.035 0 0 0 0 57.033v31.192a1.035 1.035 0 0 0 1.035 1.035h13.318v10.006a1.035 1.035 0 0 0 1.035 1.035h43.338a1.035 1.035 0 0 0 1.035-1.035V68.074a1.035 1.035 0 0 0-1.035-1.035zm-1.036 6.114H16.423V69.11H57.69zM43.337 58.068v4.043H2.07v-4.043zM2.07 87.19V64.182h41.267v2.858H15.388a1.035 1.035 0 0 0-1.035 1.035V87.19zm14.353-11.967h12.508v23.008H16.423V75.223zM31 98.231V75.223h26.69v23.008H31z"></path><path id="Path_928" data-name="Path 928" class="cls-1" d="M128.055 160.217a1.037 1.037 0 1 0-.731-.3 1.042 1.042 0 0 0 .731.3z" transform="translate(-109.489 -88.051)"></path><path id="Path_929" data-name="Path 929" class="cls-1" d="M146.633 160.217a1.034 1.034 0 1 0-.731-.3 1.042 1.042 0 0 0 .731.3z" transform="translate(-125.504 -88.051)"></path><path id="Path_930" data-name="Path 930" class="cls-1" d="M165.2 160.217a1.034 1.034 0 1 0-.733-.3 1.041 1.041 0 0 0 .733.3z" transform="translate(-141.511 -88.051)"></path><path id="Path_931" data-name="Path 931" class="cls-1" d="M133.842 212.773h6.625a1.035 1.035 0 0 0 0-2.07h-6.625a1.035 1.035 0 1 0 0 2.07z" transform="translate(-114.477 -133.353)"></path><path id="Path_932" data-name="Path 932" class="cls-1" d="M140.467 237.7h-6.625a1.035 1.035 0 1 0 0 2.07h6.625a1.035 1.035 0 0 0 0-2.07z" transform="translate(-114.477 -156.627)"></path><path id="Path_933" data-name="Path 933" class="cls-1" d="M140.467 264.7h-6.625a1.035 1.035 0 1 0 0 2.07h6.625a1.035 1.035 0 1 0 0-2.07z" transform="translate(-114.477 -179.9)"></path><path id="Path_934" data-name="Path 934" class="cls-1" d="M253.4 210.7h-15.558a1.035 1.035 0 1 0 0 2.07H253.4a1.035 1.035 0 1 0 0-2.07z" transform="translate(-204.124 -133.353)"></path><path id="Path_935" data-name="Path 935" class="cls-1" d="M253.4 237.7h-15.558a1.035 1.035 0 1 0 0 2.07H253.4a1.035 1.035 0 1 0 0-2.07z" transform="translate(-204.124 -156.627)"></path><path id="Path_936" data-name="Path 936" class="cls-1" d="M253.4 264.7h-15.558a1.035 1.035 0 1 0 0 2.07H253.4a1.035 1.035 0 1 0 0-2.07z" transform="translate(-204.124 -179.9)"></path><path id="Path_937" data-name="Path 937" class="cls-1" d="M24.055 80.217a1.037 1.037 0 1 0-.731-.3 1.042 1.042 0 0 0 .731.3z" transform="translate(-19.843 -19.092)"></path><path id="Path_938" data-name="Path 938" class="cls-1" d="M42.633 80.217a1.034 1.034 0 1 0-.731-.3 1.042 1.042 0 0 0 .731.3z" transform="translate(-35.858 -19.092)"></path><path id="Path_939" data-name="Path 939" class="cls-1" d="M61.2 80.217a1.034 1.034 0 1 0-.733-.3 1.041 1.041 0 0 0 .733.3z" transform="translate(-51.865 -19.092)"></path><path id="Path_940" data-name="Path 940" class="cls-1" d="M36.467 130.7h-6.625a1.035 1.035 0 1 0 0 2.07h6.625a1.035 1.035 0 0 0 0-2.07z" transform="translate(-24.831 -64.394)"></path><path id="Path_941" data-name="Path 941" class="cls-1" d="M36.467 157.7h-6.625a1.035 1.035 0 1 0 0 2.07h6.625a1.035 1.035 0 0 0 0-2.07z" transform="translate(-24.831 -87.668)"></path><path id="Path_942" data-name="Path 942" class="cls-1" d="M36.467 184.7h-6.625a1.035 1.035 0 1 0 0 2.07h6.625a1.035 1.035 0 0 0 0-2.07z" transform="translate(-24.831 -110.942)"></path></g></svg>